<svg xmlns="http://www.w3.org/2000/svg" viewBox="0 0 150.78 58.77"><defs><style>.cls-1{fill:#191c1e;}.cls-2{fill:#dadd34;}.cls-3{fill:#ed7248;}.cls-4{fill:#09adc5;}.cls-5{fill:#fff;}</style></defs><title>logow</title><g id="Layer_2" data-name="Layer 2"><g id="Layer_1-2" data-name="Layer 1"><path class="cls-1" d="M55.44,31.72c2.17-8,.87-15.41-4.81-21.62-6.4-7-14.5-9.2-23.56-6.46-8.34,2.53-13.31,8.49-15.3,17A23.49,23.49,0,0,1,22.83,9.42,21.08,21.08,0,0,1,38.48,8c11.61,3.59,16.8,11.87,17,23.7M20,6.41a22,22,0,0,0,6.93,43.43c-10.7-2.63-17.57-9.05-19-20C6.58,19.66,11.06,11.92,20,6.41M48.72,17.79c5.45,12.79.16,24.06-6.87,29.58A23.23,23.23,0,0,1,25.5,52.49a24.34,24.34,0,0,1-15.56-7.1,1.28,1.28,0,0,0,.23.65,22,22,0,0,0,1.52,2c6.72,7.38,15.22,9.45,24.64,7.55C48.82,53.11,56.16,42,54.13,29.37a22.63,22.63,0,0,0-5.41-11.58M58.79,29.47A29.4,29.4,0,1,1,29.61,0,29.27,29.27,0,0,1,58.79,29.47"/><path class="cls-2" d="M48.72,17.79a22.63,22.63,0,0,1,5.41,11.58c2,12.63-5.31,23.74-17.8,26.26-9.42,1.9-17.92-.17-24.65-7.55a22,22,0,0,1-1.51-2,1.28,1.28,0,0,1-.23-.65,24.34,24.34,0,0,0,15.56,7.1,23.2,23.2,0,0,0,16.35-5.13c7-5.51,12.32-16.78,6.87-29.57"/><path class="cls-3" d="M20,6.41c-8.89,5.51-13.37,13.25-12,23.42,1.42,11,8.29,17.38,19,20A22,22,0,0,1,20,6.41"/><path class="cls-4" d="M55.44,31.72c-.16-11.83-5.35-20.11-17-23.7a21.08,21.08,0,0,0-15.65,1.4A23.49,23.49,0,0,0,11.77,20.6c2-8.47,7-14.43,15.3-17C36.13.9,44.23,3.09,50.63,10.1c5.68,6.21,7,13.6,4.81,21.62"/><path class="cls-1" d="M48.65,29.61a4.22,4.22,0,0,1-4.17,4.18,4.25,4.25,0,0,1,0-8.5,4.27,4.27,0,0,1,4.2,4.32"/><path class="cls-5" d="M72.51,19.72v9.1h3.88a4.38,4.38,0,0,0,1.75-.35,4.72,4.72,0,0,0,1.46-1,4.57,4.57,0,0,0,1-1.46,4.42,4.42,0,0,0,.36-1.78,4.31,4.31,0,0,0-.36-1.77,4.44,4.44,0,0,0-1-1.43,4.84,4.84,0,0,0-1.46-1,4.56,4.56,0,0,0-1.75-.35Zm-4-3.4h8.67a7.2,7.2,0,0,1,3,.63,7.69,7.69,0,0,1,2.45,1.7,8.11,8.11,0,0,1,0,11.24,7.69,7.69,0,0,1-2.45,1.7,7.2,7.2,0,0,1-3,.63H72.51v8.33h-4Z"/><path class="cls-5" d="M99.12,32.46l-3.5-12-3.5,12ZM97.73,16.32l7.75,24.23h-4l-1.32-4.69H91l-1.32,4.69h-4l7.75-24.23Z"/><path class="cls-5" d="M112.21,19.72v9.1h6.45a4.67,4.67,0,0,0,1.86-.35,4.32,4.32,0,0,0,1.42-1,4.27,4.27,0,0,0,.92-1.45,4.65,4.65,0,0,0,.32-1.75,4.77,4.77,0,0,0-.35-1.8,4.46,4.46,0,0,0-2.42-2.43,4.52,4.52,0,0,0-1.75-.35Zm-4-3.4h11.11a7.32,7.32,0,0,1,3,.63,7.65,7.65,0,0,1,2.44,1.7,8.19,8.19,0,0,1,1.65,2.49A7.67,7.67,0,0,1,127,24.2a7.82,7.82,0,0,1-1.22,4.27,8.73,8.73,0,0,1-3.23,3l4.76,9.07h-4l-4.36-8.33h-6.72v8.33h-4Z"/><path class="cls-5" d="M135.38,27.87c.84-.88,1.67-1.78,2.48-2.68l2.5-2.79L143,19.46c.9-1,1.85-2.05,2.85-3.14H150l-8.09,8.94,8.84,15.29H146.6l-7.27-12.41-4,4.35v8.06h-4V16.32h4Z"/><path class="cls-5" d="M9.93,35.18v-10H15.3l.2.94H11v3.5h3.87v.94H11v3.66h4.88l-.21.94Z"/><path class="cls-5" d="M17.08,35.29V24.71l7.09,8.19V25.29l1-.19V35.56l-7.08-8.18v7.69Z"/><path class="cls-5" d="M26.49,30.58h3.26v.88H26.49Z"/><path class="cls-5" d="M38.42,25.59l-.57.91-.22-.13-.27-.11A3.91,3.91,0,0,0,35.94,26,4,4,0,0,0,33,27.25a4.17,4.17,0,0,0,2.94,7.13,3.7,3.7,0,0,0,2-.61l.46.91a5,5,0,0,1-2.45.68,5.24,5.24,0,0,1-3.8-1.47,5.19,5.19,0,0,1,0-7.37,5.37,5.37,0,0,1,5.57-1.2c.18.07.4.15.64.27"/><path class="cls-5" d="M44.52,26a4,4,0,0,0-2.93,1.24,4.15,4.15,0,0,0-1.21,3,4.1,4.1,0,0,0,1.21,3,4.09,4.09,0,0,0,5.87,0,4.34,4.34,0,0,0,0-6A4,4,0,0,0,44.52,26m-5.2,4.22a5,5,0,0,1,1.48-3.69,5.44,5.44,0,0,1,7.44,0,5.34,5.34,0,0,1,0,7.39,5,5,0,0,1-3.73,1.48,5.11,5.11,0,0,1-3.72-1.47,5,5,0,0,1-1.48-3.71"/></g></g></svg>